Coordinates
version=1
nRows=13
nColumns=34
inDegrees=yes

Units are S.I. units (second, meters, Newtons, ...)
If the header above contains a line with 'inDegrees', this indicates whether rotational values are in degrees (yes) or radians (no).

endheader
time	pelvis_tilt	pelvis_list	pelvis_rotation	pelvis_tx	pelvis_ty	pelvis_tz	hip_flexion_r	hip_adduction_r	hip_rotation_r	knee_angle_r	ankle_angle_r	subtalar_angle_r	mtp_angle_r	hip_flexion_l	hip_adduction_l	hip_rotation_l	knee_angle_l	ankle_angle_l	subtalar_angle_l	mtp_angle_l	lumbar_extension	lumbar_bending	lumbar_rotation	arm_flex_r	arm_add_r	arm_rot_r	elbow_flex_r	pro_sup_r	arm_flex_l	arm_add_l	arm_rot_l	elbow_flex_l	pro_sup_l
      0.00000000	      3.28566857	     -0.27681818	     -4.06090354	      0.51103611	      0.98479127	     -0.02738771	     -1.33872261	     -4.50117399	      1.48840180	     11.36903118	      7.50153649	     -9.75271533	      0.00000000	      1.15496648	     -5.07234037	      0.20367221	     16.90500318	     10.06860495	    -10.01220870	      0.00000000	     -1.20587824	      2.58634989	      6.32151416	     56.82029289	     16.70217198	     57.37593625	    150.00035077	    114.91837157	     75.22990432	     25.22934075	     73.93866019	    118.70891064	     94.23625858
      0.01666670	      2.98871447	     -0.40692911	     -3.69977720	      0.51313001	      0.97856798	     -0.02842047	     -2.39757349	     -4.21596738	      2.05136020	      9.20176831	      9.92842601	     -6.94597785	      0.00000000	      1.79499906	     -5.01117578	      2.03017949	     16.90424238	      9.10027279	    -11.34823066	      0.00000000	      1.18617985	      3.11480713	      6.01270025	     57.30933569	     17.95373919	     50.56273118	    150.00035077	    114.05657077	     74.23218492	     23.66558572	     71.85665283	    121.68001030	     95.28904678
      0.03333330	      1.28719333	     -0.38964641	     -3.96272466	      0.51538620	      0.97484357	     -0.02754783	     -0.88314425	     -4.23248662	      2.27466648	      8.94025241	     10.24874475	     -7.51683027	      0.00000000	      3.28834952	     -4.97951203	      2.34170302	     16.42828085	      9.11384242	    -10.95974314	      0.00000000	      4.84190234	      3.22281949	      6.36053025	     56.36927241	     18.50351086	     47.33539045	    150.00035077	    113.75017399	     72.04826558	     22.23041380	     71.88392455	    122.50314973	     95.81662748
      0.05000000	      0.78396147	     -0.20676071	     -3.68856382	      0.51350567	      0.96575198	     -0.02924217	     -0.11557653	     -4.43734032	      2.71102474	      9.50294580	     11.19786576	     -8.79522710	      0.00000000	      3.57621904	     -4.68617125	      3.36004695	     16.07862364	      9.84004409	    -11.72288189	      0.00000000	      5.39368886	      2.65599023	      5.35639722	     56.96851737	     19.07262532	     43.59588988	    150.00035077	    113.19610959	     72.65796418	     21.53471575	     71.43027716	    121.34311893	     96.63222624
      0.06666670	      0.05022747	      0.04640375	     -3.64843381	      0.51375197	      0.97693321	     -0.02845862	      0.71867681	     -4.59122095	      2.57864602	      9.63605495	     11.35372146	     -8.79386565	      0.00000000	      3.76187882	     -4.52312069	      3.81953887	     14.88649281	      9.31102361	    -11.58833162	      0.00000000	      6.94895260	      2.25940266	      5.98694746	     55.68929845	     18.50382850	     46.81700692	    150.00035077	    113.27828589	     70.57021287	     21.29098485	     72.83819799	    120.71599252	     97.06734248
      0.08333330	     -0.25872754	      0.12406377	     -3.42192784	      0.51186681	      0.96879652	     -0.02900812	      1.43232048	     -4.59686970	      2.54514076	     10.22997487	     12.05987070	     -9.35124584	      0.00000000	      3.96982123	     -4.40189626	      4.34736889	     14.38000741	      9.88484166	    -11.66201849	      0.00000000	      6.64826543	      2.10719969	      5.60112499	     56.26509213	     18.92465609	     47.24243403	    150.00035077	    113.29454101	     71.21958377	     21.34645315	     72.54762725	    120.59297926	     97.15793728
      0.10000000	     -0.60037335	      0.25750059	     -3.09515605	      0.51196190	      0.96968672	     -0.02871726	      1.98619834	     -4.67968289	      2.46229084	     10.50902059	     12.05892678	    -10.00041562	      0.00000000	      4.22976599	     -4.29216545	      4.60900718	     14.08861324	      9.85059970	    -11.78945570	      0.00000000	      6.65341482	      1.64358735	      4.89889981	     56.75210396	     19.37949517	     48.99439744	    150.00035077	    113.44468426	     71.51035256	     21.19113787	     72.52926213	    120.42368040	     97.38843397
      0.11666670	     -0.70861873	      0.38963568	     -2.83131980	      0.51206243	      0.96831544	     -0.02833906	      2.22740947	     -4.76664011	      2.25434848	     10.74711826	     12.28361240	    -10.27471368	      0.00000000	      4.21019850	     -4.16553657	      4.80318118	     13.73330139	      9.78709381	    -11.63866297	      0.00000000	      6.70469119	      1.45707070	      5.03154974	     56.93828584	     19.49081006	     49.13859365	    150.00035077	    113.47446403	     71.67346971	     21.27220192	     72.30697187	    120.63245265	     97.40489384
      0.13333330	     -0.69418365	      0.49651437	     -2.67029420	      0.51303935	      0.97423344	     -0.02788268	      2.17733498	     -4.84180890	      2.06406087	     10.78552780	     12.16051543	    -10.33499168	      0.00000000	      4.01327180	     -4.10655347	      4.62786621	     13.39891919	      9.33048477	    -11.40461152	      0.00000000	      6.74525718	      1.19358466	      4.86646195	     56.23090077	     19.54372549	     49.48863914	    150.00035077	    113.53058544	     71.24616900	     21.10989125	     72.30207331	    120.86681562	     97.39412768
      0.15000000	     -0.67685004	      0.55134262	     -2.68865322	      0.51179126	      0.96265905	     -0.02917668	      2.33236314	     -4.91234814	      2.20108191	     11.18693255	     12.69688088	    -10.63539264	      0.00000000	      3.90678805	     -3.99434235	      4.66557872	     13.29835917	      9.76595980	    -11.43424945	      0.00000000	      7.23387728	      1.13684332	      4.85181509	     55.94989700	     19.87322128	     49.58735666	    150.00035077	    113.55730194	     71.34000176	     21.15334940	     71.65362899	    121.14463815	     97.31614368
      0.16666670	     -0.81353579	      0.68473525	     -2.60118459	      0.51130893	      0.97348380	     -0.02863285	      2.36829591	     -5.04496541	      2.02645085	     10.93425509	     12.36028903	    -10.69141228	      0.00000000	      3.89139621	     -3.89973529	      4.53405834	     12.93342799	      9.34234300	    -11.13197442	      0.00000000	      7.59495152	      1.11351268	      4.54805664	     55.15787218	     20.07418928	     50.14056857	    150.00035077	    113.59513857	     70.43350608	     21.07496825	     72.01866875	    121.62210005	     97.24602975
      0.18333330	     -0.95469202	      0.69011901	     -2.70863166	      0.51061465	      0.96889332	     -0.02912705	      2.48548981	     -5.06190787	      2.18566580	     10.71666271	     12.44240301	    -10.65628422	      0.00000000	      3.93272689	     -3.88626559	      4.53701883	     12.70487828	      9.46655003	    -11.12397088	      0.00000000	      7.67917921	      1.22991055	      4.37688772	     55.18864263	     19.98604070	     49.94059558	    150.00035077	    113.57816699	     70.52162600	     21.28534410	     71.87569485	    121.80899811	     97.20070590
      0.20000000	     -1.06178960	      0.74807896	     -2.66596859	      0.51021730	      0.97104424	     -0.02856969	      2.59237233	     -5.08426518	      2.20205242	     10.55515767	     12.45688446	    -10.65619288	      0.00000000	      4.05705948	     -3.83444547	      4.52386790	     12.58347300	      9.43924917	    -11.09484048	      0.00000000	      7.43191808	      1.34580243	      4.33003459	     55.09773807	     19.92916017	     49.86766558	    150.00035077	    113.57150272	     70.44531668	     21.28285220	     71.89063512	    121.81569908	     97.19107163
